<svg width="29" height="31" viewBox="0 0 29 31" fill="none" xmlns="http://www.w3.org/2000/svg">
<g clip-path="url(#clip0_387_846)">
<path d="M12.5833 30.0024C10.9637 30.0024 9.64624 28.685 9.64624 27.0654C9.64624 26.4822 9.81827 25.9157 10.1413 25.4332C10.4644 24.9507 11.1148 24.8248 11.5973 25.1437C12.0798 25.4668 12.2057 26.1171 11.8868 26.5996C11.7945 26.7381 11.7483 26.8975 11.7483 27.0654C11.7483 27.5269 12.126 27.9045 12.5875 27.9045C13.049 27.9045 13.4267 27.5269 13.4267 27.0654V1.05139C13.4267 0.472371 13.8966 0.00244141 14.4756 0.00244141C15.0546 0.00244141 15.5246 0.472371 15.5246 1.05139V27.0654C15.5246 28.685 14.2071 30.0024 12.5875 30.0024H12.5833Z" fill="#CDCDCE"/>
<path d="M15.0295 2.72995C15.0295 2.72995 27.2728 5.59988 28.9427 14.4656C28.9427 15.7999 27.8644 16.8782 26.5302 16.8782C25.1959 16.8782 24.1176 15.7999 24.1176 14.4656C24.1176 15.7999 23.0393 16.8782 21.705 16.8782C20.3707 16.8782 19.2924 15.7999 19.2924 14.4656C19.2924 15.7999 18.2141 16.8782 16.8798 16.8782C15.5455 16.8782 14.4672 15.7999 14.4672 14.4656C14.4672 15.7999 13.3889 16.8782 12.0546 16.8782C10.7204 16.8782 9.64205 15.7999 9.64205 14.4656C9.64205 15.7999 8.56373 16.8782 7.22946 16.8782C5.8952 16.8782 4.81687 15.7999 4.81687 14.4656C4.81687 15.7999 3.73855 16.8782 2.40429 16.8782C1.07002 16.8782 -0.00830078 15.7999 -0.00830078 14.4656C1.67422 5.59569 13.9176 2.72995 13.9176 2.72995C13.9176 2.72995 14.4253 2.56632 15.0295 2.72995Z" fill="#F7AAA1"/>
<path d="M28.9469 14.4653C28.9469 15.7996 27.8686 16.8779 26.5343 16.8779C25.2 16.8779 24.1217 15.7996 24.1217 14.4653C24.1217 15.7996 23.0434 16.8779 21.7091 16.8779C20.3749 16.8779 19.2965 15.7996 19.2965 14.4653C19.2965 15.7996 18.2182 16.8779 16.884 16.8779C15.5497 16.8779 14.4714 15.7996 14.4714 14.4653C14.4714 15.7996 13.3931 16.8779 12.0588 16.8779C10.7245 16.8779 9.6462 15.7996 9.6462 14.4653C9.6462 15.7996 8.56788 16.8779 7.23361 16.8779C5.89935 16.8779 4.82102 15.7996 4.82102 14.4653C4.82102 15.7996 3.7427 16.8779 2.40844 16.8779C1.07417 16.8779 -0.00415039 15.7996 -0.00415039 14.4653C-0.00415039 14.4653 0.184661 13.6429 0.23501 13.4751H28.7077C28.7077 13.4751 28.9175 14.2849 28.9427 14.4653H28.9469Z" fill="#F16B6C"/>
</g>
<defs>
<clipPath id="clip0_387_846">
<rect width="28.9469" height="30" fill="white" transform="translate(0 0.00244141)"/>
</clipPath>
</defs>
</svg>
