<svg width="30" height="31" viewBox="0 0 30 31" fill="none" xmlns="http://www.w3.org/2000/svg">
<path d="M15.0001 25.1129C20.5824 25.1129 25.1078 20.5875 25.1078 15.0052C25.1078 9.42285 20.5824 4.89746 15.0001 4.89746C9.41772 4.89746 4.89233 9.42285 4.89233 15.0052C4.89233 20.5875 9.41772 25.1129 15.0001 25.1129Z" fill="#FFD367"/>
<path d="M15.0001 3.67287C14.1578 3.67287 13.4771 2.99216 13.4771 2.14985V1.52302C13.4771 0.680705 14.1578 0 15.0001 0C15.8424 0 16.5231 0.680705 16.5231 1.52302V2.14985C16.5231 2.98727 15.8424 3.67287 15.0001 3.67287Z" fill="#FFD367"/>
<path d="M15.0001 30.0049C14.1578 30.0049 13.4771 29.3242 13.4771 28.4819V27.855C13.4771 27.0176 14.1578 26.332 15.0001 26.332C15.8424 26.332 16.5231 27.0127 16.5231 27.855V28.4819C16.5231 29.3193 15.8424 30.0049 15.0001 30.0049Z" fill="#FFD367"/>
<path d="M28.477 16.5231H27.8502C27.0128 16.5231 26.3271 15.8424 26.3271 15.0001C26.3271 14.1578 27.0079 13.4771 27.8502 13.4771H28.477C29.3193 13.4771 30 14.1578 30 15.0001C30 15.8424 29.3193 16.5231 28.477 16.5231Z" fill="#FFD367"/>
<path d="M2.14985 16.5231H1.52302C0.680705 16.5231 0 15.8424 0 15.0001C0 14.1578 0.680705 13.4771 1.52302 13.4771H2.14985C2.98727 13.4771 3.67287 14.1578 3.67287 15.0001C3.67287 15.8424 2.99216 16.5231 2.14985 16.5231Z" fill="#FFD367"/>
<path d="M8.57488 5.39714C8.05088 5.39714 7.53668 5.1229 7.25754 4.63808L6.94412 4.09449C6.52297 3.36482 6.77272 2.43925 7.5024 2.0181C8.23208 1.59694 9.15764 1.8467 9.5788 2.57637L9.89221 3.11996C10.3134 3.84964 10.0636 4.7752 9.33394 5.19636C9.09398 5.33348 8.83443 5.40204 8.57488 5.40204V5.39714Z" fill="#FFD367"/>
<path d="M21.7385 28.1974C21.2145 28.1974 20.7003 27.9232 20.4211 27.4384L20.1077 26.8948C19.6865 26.1651 19.9363 25.2395 20.666 24.8184C21.3957 24.3972 22.3212 24.647 22.7424 25.3767L23.0558 25.9203C23.4769 26.6499 23.2272 27.5755 22.4975 27.9966C22.2576 28.1338 21.998 28.2023 21.7385 28.2023V28.1974Z" fill="#FFD367"/>
<path d="M26.1313 10.0976C25.6073 10.0976 25.0931 9.8234 24.814 9.33858C24.3928 8.6089 24.6426 7.68334 25.3723 7.26218L25.9159 6.94876C26.6455 6.52761 27.5711 6.77736 27.9923 7.50704C28.4134 8.23672 28.1637 9.16228 27.434 9.58343L26.8904 9.89685C26.6504 10.034 26.3909 10.1025 26.1313 10.1025V10.0976Z" fill="#FFD367"/>
<path d="M3.33006 23.2661C2.80607 23.2661 2.29187 22.9919 2.01273 22.507C1.59157 21.7774 1.84133 20.8518 2.571 20.4306L3.11459 20.1172C3.84427 19.6961 4.77473 19.9458 5.19098 20.6755C5.61214 21.4052 5.36238 22.3307 4.63271 22.7519L4.08912 23.0653C3.84916 23.2024 3.58961 23.271 3.33006 23.271V23.2661Z" fill="#FFD367"/>
<path d="M3.8687 10.0979C3.60915 10.0979 3.3496 10.0343 3.10964 9.89224L2.56605 9.57882C1.84127 9.15766 1.59152 8.2272 2.00778 7.50242C2.42893 6.77274 3.35939 6.52789 4.08417 6.94414L4.62776 7.25756C5.35254 7.67872 5.60229 8.60918 5.18603 9.33396C4.902 9.82367 4.39269 10.093 3.8687 10.093V10.0979Z" fill="#FFD367"/>
<path d="M26.6698 23.2666C26.4102 23.2666 26.1507 23.2029 25.9107 23.0609L25.3671 22.7475C24.6375 22.3263 24.3877 21.3959 24.8089 20.6711C25.23 19.9414 26.1556 19.6917 26.8853 20.1128L27.4289 20.4262C28.1585 20.8474 28.4083 21.7779 27.9871 22.5026C27.7031 22.9924 27.1938 23.2617 26.6698 23.2617V23.2666Z" fill="#FFD367"/>
<path d="M21.425 5.39692C21.1654 5.39692 20.9059 5.33326 20.6659 5.19124C19.9411 4.77009 19.6914 3.83963 20.1125 3.11485L20.4259 2.57126C20.8471 1.84159 21.7775 1.59673 22.5023 2.01788C23.2271 2.43904 23.4769 3.3695 23.0557 4.09428L22.7423 4.63786C22.4583 5.12758 21.9489 5.39692 21.425 5.39692Z" fill="#FFD367"/>
<path d="M8.2566 28.1978C7.99705 28.1978 7.7375 28.1342 7.49754 27.9922C6.76786 27.571 6.523 26.6405 6.93926 25.9158L7.25268 25.3722C7.67384 24.6474 8.5994 24.3928 9.32908 24.8139C10.0588 25.2351 10.3036 26.1655 9.88735 26.8903L9.57393 27.4339C9.2899 27.9236 8.78059 28.1929 8.2566 28.1929V28.1978Z" fill="#FFD367"/>
</svg>
