<svg width="30" height="20" viewBox="0 0 30 20" fill="none" xmlns="http://www.w3.org/2000/svg">
<path d="M25.271 8.55702H9.95331C7.73499 8.55702 5.92603 6.75196 5.92603 4.52974C5.92603 2.30752 7.73109 0.502441 9.95331 0.502441C12.1755 0.502441 13.9806 2.30752 13.9806 4.52974C13.9806 5.06775 13.5439 5.5044 13.0059 5.5044C12.4679 5.5044 12.0313 5.06775 12.0313 4.52974C12.0313 3.38354 11.0995 2.45176 9.95331 2.45176C8.80711 2.45176 7.87534 3.38354 7.87534 4.52974C7.87534 5.67594 8.80711 6.60771 9.95331 6.60771H25.271C25.8091 6.60771 26.2457 7.04435 26.2457 7.58236C26.2457 8.12038 25.8091 8.55702 25.271 8.55702Z" fill="#7ACBC5"/>
<path d="M4.02728 18.1166C1.80896 18.1166 0 16.3115 0 14.0893C0 11.8671 1.80506 10.062 4.02728 10.062H29.0253C29.5634 10.062 30 10.4987 30 11.0367C30 11.5747 29.5634 12.0113 29.0253 12.0113H4.02728C2.88109 12.0113 1.94932 12.9431 1.94932 14.0893C1.94932 15.2355 2.88109 16.1673 4.02728 16.1673C5.17348 16.1673 6.10526 15.2355 6.10526 14.0893C6.10526 13.5513 6.54191 13.1146 7.07992 13.1146C7.61793 13.1146 8.05458 13.5513 8.05458 14.0893C8.05458 16.3076 6.24951 18.1166 4.02728 18.1166Z" fill="#7ACBC5"/>
<path d="M12.8226 19.5119C11.1969 19.5119 9.87524 18.1903 9.87524 16.5646C9.87524 14.9388 11.1969 13.6172 12.8226 13.6172H22.5302C23.0682 13.6172 23.5049 14.0538 23.5049 14.5918C23.5049 15.1299 23.0682 15.5665 22.5302 15.5665H12.8226C12.2729 15.5665 11.8246 16.0148 11.8246 16.5646C11.8246 17.1143 12.2729 17.5626 12.8226 17.5626C13.3723 17.5626 13.7973 17.9993 13.7973 18.5373C13.7973 19.0753 13.3606 19.5119 12.8226 19.5119Z" fill="#7ACBC5"/>
</svg>
