<svg width="40" height="37" viewBox="0 0 40 37" fill="none" xmlns="http://www.w3.org/2000/svg">
<path fill-rule="evenodd" clip-rule="evenodd" d="M23.8741 9.24278L19.3266 8.56304L17.4165 7.43467L13.6406 3.86603C13.3272 3.68889 12.9654 3.61671 12.608 3.66006C12.2507 3.7034 11.9166 3.86 11.6547 4.10692C11.3927 4.35384 11.2167 4.67812 11.1524 5.03229C11.0881 5.38646 11.1388 5.75193 11.2972 6.07518L13.9108 9.38552C15.2992 11.1478 15.0544 11.1698 17.1803 11.9515C18.3988 12.3985 19.8466 12.8607 21.218 13.221L17.4573 18.8934L10.1025 14.905C9.69837 14.7259 9.25765 14.6447 8.8162 14.668C8.37475 14.6914 7.94503 14.8186 7.562 15.0393L0.504593 18.3972C-0.676457 19.4593 0.334657 22.4382 2.30421 21.8877L8.63599 19.9878L15.5218 25.4036C18.4854 27.1285 21.0294 27.1506 22.8103 24.0662L26.7324 17.8211C27.2422 18.0777 27.6229 18.234 27.752 18.715L24.6762 25.5379C23.8571 27.4479 26.6083 29.1609 27.4172 27.2763L31.8355 20.2563C32.1684 19.8308 32.3378 19.3002 32.3132 18.7606C32.2886 18.221 32.0715 17.7081 31.7013 17.3147L28.2176 11.9244C27.5991 10.971 27.4835 10.4867 26.4452 9.9684C25.6128 9.64662 24.7519 9.40368 23.8741 9.24278ZM23.2147 37C23.0345 37 22.8616 36.9284 22.7341 36.8009C22.6066 36.6734 22.535 36.5005 22.535 36.3203C22.535 36.14 22.6066 35.9671 22.7341 35.8396C22.8616 35.7121 23.0345 35.6405 23.2147 35.6405H38.8267C39.007 35.6405 39.1799 35.7121 39.3073 35.8396C39.4348 35.9671 39.5064 36.14 39.5064 36.3203C39.5064 36.5005 39.4348 36.6734 39.3073 36.8009C39.1799 36.9284 39.007 37 38.8267 37H23.2147ZM11.5946 32.4338C11.4143 32.4338 11.2414 32.3622 11.1139 32.2347C10.9864 32.1073 10.9148 31.9344 10.9148 31.7541C10.9148 31.5738 10.9864 31.4009 11.1139 31.2734C11.2414 31.146 11.4143 31.0744 11.5946 31.0744H35.9786C36.1588 31.0744 36.3317 31.146 36.4592 31.2734C36.5867 31.4009 36.6583 31.5738 36.6583 31.7541C36.6583 31.9344 36.5867 32.1073 36.4592 32.2347C36.3317 32.3622 36.1588 32.4338 35.9786 32.4338H11.5946ZM26.2549 0C27.1123 0 27.9504 0.254246 28.6633 0.730587C29.3762 1.20693 29.9318 1.88397 30.2599 2.6761C30.588 3.46822 30.6739 4.33986 30.5066 5.18077C30.3394 6.02169 29.9265 6.79412 29.3202 7.40039C28.7139 8.00666 27.9415 8.41953 27.1006 8.5868C26.2597 8.75407 25.3881 8.66822 24.5959 8.34011C23.8038 8.012 23.1268 7.45637 22.6504 6.74347C22.1741 6.03058 21.9198 5.19244 21.9198 4.33505C21.9198 3.18532 22.3766 2.08269 23.1895 1.26971C24.0025 0.456727 25.1051 0 26.2549 0ZM3.6178 29.9086L8.95887 22.4824L12.9557 25.5956L6.69363 32.4236C4.78866 34.2555 2.5795 31.4618 3.6178 29.9086Z" fill="#333333"/>
</svg>
