<svg width="26" height="23" viewBox="0 0 26 23" fill="none" xmlns="http://www.w3.org/2000/svg">
<path d="M13 8.42212V12.6334" stroke="#333333" stroke-width="3" stroke-linecap="round" stroke-linejoin="round"/>
<path d="M11.2001 3.01422L2.28269 17.8972C2.09863 18.2155 2.00117 18.5765 2.00001 18.9443C1.99885 19.312 2.09404 19.6736 2.2761 19.9931C2.45816 20.3126 2.72073 20.5788 3.03768 20.7653C3.35463 20.9518 3.71489 21.052 4.0826 21.0559H21.9174C22.2851 21.052 22.6454 20.9518 22.9623 20.7653C23.2793 20.5788 23.5418 20.3126 23.7239 19.9931C23.906 19.6736 24.0011 19.312 24 18.9443C23.9988 18.5765 23.9014 18.2155 23.7173 17.8972L14.7999 3.01422C14.6123 2.70464 14.3481 2.44866 14.0327 2.271C13.7173 2.09334 13.3615 2 12.9995 2C12.6375 2 12.2817 2.09334 11.9663 2.271C11.6509 2.44866 11.3867 2.70464 11.1991 3.01422H11.2001Z" stroke="#333333" stroke-width="3" stroke-linecap="round" stroke-linejoin="round"/>
<circle cx="13" cy="16.5" r="1.5" fill="#333333"/>
</svg>
