<svg width="24" height="28" viewBox="0 0 24 28" fill="none" xmlns="http://www.w3.org/2000/svg">
<path d="M11.9991 10.4062V14.1035" stroke="#333333" stroke-width="3" stroke-linecap="round" stroke-linejoin="round"/>
<path d="M22.9947 5.65871V4.73818L21.077 4.71058H21.0708C19.6263 4.63163 18.2035 4.32269 16.8563 3.7954C15.5549 3.28024 14.3142 2.62343 13.1565 1.83684L11.9938 1L10.8498 1.8315C9.69145 2.62265 8.44836 3.28196 7.14365 3.79718C5.79754 4.33417 4.37148 4.64345 2.92385 4.71236L1 4.73996V15.8023C1 18.344 2.45557 21.1946 5.00081 23.6232C6.05377 24.6391 7.24118 25.5057 8.52979 26.1987C9.59102 26.8051 10.7809 27.1514 12.0018 27.2091C13.2304 27.1459 14.4268 26.7943 15.4943 26.1827C16.7734 25.4926 17.9525 24.6315 18.9992 23.6232C20.1122 22.5765 21.0593 21.3664 21.8079 20.0345C22.5555 18.7461 22.9656 17.2897 23 15.8005V5.66138L22.9947 5.65871ZM11.9448 3.34404L11.9947 3.30398L12.0463 3.34404C13.3283 4.21785 14.7014 4.94979 16.1415 5.52695C17.7037 6.14757 19.3586 6.50321 21.0379 6.57923H21.1135L21.1198 15.7996C21.1198 17.8294 19.8734 20.185 17.7012 22.2664C15.7818 24.1003 13.4912 25.3325 11.9973 25.3325C11.0742 25.2636 10.1787 24.9863 9.3782 24.5214C8.25182 23.9139 7.21418 23.1545 6.29436 22.2646C4.11946 20.185 2.87132 17.8294 2.87132 15.796V6.58012H2.95144C4.63115 6.50868 6.28666 6.1535 7.84785 5.52962C9.28712 4.95252 10.6601 4.22216 11.943 3.35116L11.9448 3.34404Z" fill="#333333" stroke="#333333"/>
<circle cx="12" cy="18.5" r="1.5" fill="#333333"/>
</svg>
