<svg width="19" height="15" viewBox="0 0 19 15" fill="none" xmlns="http://www.w3.org/2000/svg">
<path d="M4.728 3.8179H15.185L15.149 0.843903C15.1448 0.661038 15.0692 0.487072 14.9384 0.359238C14.8076 0.231403 14.6319 0.159864 14.449 0.159912H9.83899L8.79199 1.90291H1.34499C1.17639 1.90317 1.01478 1.97026 0.895569 2.08948C0.776353 2.20869 0.709249 2.37031 0.708984 2.53891V12.9649L4.10899 4.23991C4.15935 4.11536 4.24571 4.00866 4.35706 3.93349C4.4684 3.85831 4.59965 3.81806 4.73399 3.8179H4.728Z" fill="black"/>
<path d="M17.8851 4.74129H5.19814C5.06098 4.73983 4.92683 4.78152 4.81467 4.86048C4.70251 4.93944 4.61801 5.05168 4.57314 5.1813L1.64115 13.3173C1.60515 13.4177 1.59378 13.5254 1.60799 13.6311C1.6222 13.7369 1.66155 13.8377 1.72278 13.925C1.78401 14.0124 1.86531 14.0838 1.95986 14.1333C2.0544 14.1828 2.15945 14.2088 2.26615 14.2093L14.8881 14.2033C15.0251 14.2039 15.1588 14.1618 15.2708 14.083C15.3828 14.0041 15.4675 13.8924 15.5131 13.7633L18.5131 5.6383C18.5512 5.53742 18.5642 5.42879 18.551 5.32177C18.5378 5.21475 18.4988 5.11255 18.4373 5.02398C18.3758 4.93541 18.2936 4.86311 18.198 4.81335C18.1023 4.76358 17.996 4.73782 17.8881 4.73829L17.8851 4.74129Z" fill="black"/>
</svg>
