<svg xmlns="http://www.w3.org/2000/svg" width="18.4" height="22.276" viewBox="0 0 18.4 22.276">
  <g id="그룹_137" data-name="그룹 137" transform="translate(-183.788 -78.778)">
    <g id="그룹_158" data-name="그룹 158" transform="translate(183.788 78.778)">
      <path id="패스_165" data-name="패스 165" d="M186.481,94.484a9.2,9.2,0,1,1,13.013,0l-6.506,6.57-6.506-6.57Zm6.506-12.318a5.812,5.812,0,1,1-5.812,5.812A5.814,5.814,0,0,1,192.987,82.166Z" transform="translate(-183.788 -78.778)" fill-rule="evenodd"/>
      <path id="패스_166" data-name="패스 166" d="M320.1,215.823h.242v3.632a.727.727,0,0,0,.726.726h.969a.726.726,0,0,0,0-1.453H321.8V215.1a.727.727,0,0,0-.726-.726H320.1a.726.726,0,0,0,0,1.453Z" transform="translate(-311.871 -206.865)" fill-rule="evenodd"/>
    </g>
    <path id="패스_167" data-name="패스 167" d="M325.687,171.589a.969.969,0,1,1-.969-.969.969.969,0,0,1,.969.969" transform="translate(-132.216 -86.759)" fill-rule="evenodd"/>
  </g>
</svg>
