<svg fill="none" height="10" viewBox="0 0 11 10" width="11" xmlns="http://www.w3.org/2000/svg"><g fill="#000"><path d="m2.82977 3.0874h6.14l-.02099-1.746c-.00338-.10709-.04824-.20867-.12511-.28331-.07688-.074636-.17975-.116477-.2869-.116684h-2.707l-.615 1.022994h-4.373004c-.099191 0-.194311.03941-.26445.10954-.070138.07014-.109543.16528-.109543.26447v6.12199l1.994007-5.123c.02994-.07289.08073-.1353.14602-.17943.0653-.04412.14217-.06798.22097-.06857z"/><path d="m10.556 3.62893h-7.44997c-.0805-.00089-.15923.02354-.22509.06984-.06585.0463-.11549.11211-.1419.18816l-1.722 4.778c-.021103.05899-.027754.12218-.019398.18428.008358.06209.031468.12128.067418.1726.03594.05132.08366.09329.13916.12236.05549.02908.11715.04442.17981.04476h7.41101c.08039.00044.15891-.02416.22468-.07039.06577-.04624.11551-.11181.14231-.18761l1.75997-4.77099c.022-.05916.0293-.12276.0213-.18535-.0079-.0626-.0309-.12233-.067-.17411-.0361-.05177-.0841-.09406-.1401-.12324-.0559-.02918-.1181-.04438-.1812-.04431z"/></g></svg>