<svg xmlns="http://www.w3.org/2000/svg" width="24" height="24" viewBox="0 0 24 24">
  <path id="패스_180" data-name="패스 180" d="M102.65,29.151a1.092,1.092,0,0,0-1.154.2,28.847,28.847,0,0,0-2.419,2.592.879.879,0,0,1-1.106.2,21.693,21.693,0,0,1-8.1-8.108.879.879,0,0,1,.2-1.1,28.969,28.969,0,0,0,2.589-2.42,1.092,1.092,0,0,0,.2-1.153,14.017,14.017,0,0,0-3.606-5.316A4.542,4.542,0,0,0,85.3,15.69a4.832,4.832,0,0,0-1.288,3.637c.235,3.73,2.521,8.325,6.435,12.238s8.508,6.2,12.238,6.434a4.833,4.833,0,0,0,3.637-1.288,4.541,4.541,0,0,0,1.642-3.953,14.019,14.019,0,0,0-5.316-3.606Z" transform="translate(-84.004 -14.009)" fill="#5cc2cf"/>
</svg>
