<svg width="22" height="25" viewBox="0 0 22 25" fill="none" xmlns="http://www.w3.org/2000/svg">
<path d="M16.8452 9.21462C16.8128 7.55533 16.1309 5.97494 14.946 4.81293C13.7611 3.65092 12.1677 3 10.5081 3C8.84847 3 7.25507 3.65092 6.07016 4.81293C4.88525 5.97494 4.20335 7.55533 4.17097 9.21462C4.16855 16.6091 1 18.7215 1 18.7215H20.0149C20.0149 18.7215 16.8464 16.6091 16.8464 9.21462" fill="#333333"/>
<path d="M16.8452 9.21462C16.8128 7.55533 16.1309 5.97494 14.946 4.81293C13.7611 3.65092 12.1677 3 10.5081 3C8.84847 3 7.25507 3.65092 6.07016 4.81293C4.88525 5.97494 4.20335 7.55533 4.17097 9.21462C4.16855 16.6091 1 18.7215 1 18.7215H20.0149C20.0149 18.7215 16.8464 16.6091 16.8464 9.21462" stroke="#333333" stroke-width="1.2" stroke-linecap="round" stroke-linejoin="round"/>
<path d="M12.3368 22.9473C12.1512 23.2675 11.8846 23.5334 11.5639 23.7182C11.2432 23.903 10.8795 24.0002 10.5093 24.0002C10.1392 24.0002 9.77549 23.903 9.45475 23.7182C9.13401 23.5334 8.86747 23.2675 8.68182 22.9473" stroke="#333333" stroke-width="1.2" stroke-linecap="round" stroke-linejoin="round"/>
</svg>
