<svg xmlns="http://www.w3.org/2000/svg" width="16.336" height="16.34" viewBox="0 0 16.336 16.34">
  <g id="그룹_358" data-name="그룹 358" transform="translate(-2.325 -2.325)">
    <path id="패스_201" data-name="패스 201" d="M34.719,6.334a.572.572,0,0,0,.394.154.6.6,0,0,0,.394-.154.549.549,0,0,0,0-.789l-.583-.583H42.2l-.583.583a.549.549,0,0,0,0,.789.572.572,0,0,0,.394.154.6.6,0,0,0,.394-.154l1.526-1.526a.549.549,0,0,0,0-.789L42.4,2.492a.558.558,0,0,0-.789.789l.583.583H34.924L35.49,3.3a.558.558,0,1,0-.789-.789L33.192,4.036a.549.549,0,0,0,0,.789Z" transform="translate(-25.435)" fill="#fff"/>
    <path id="패스_202" data-name="패스 202" d="M5.545,35.49a.572.572,0,0,0,.394.154.6.6,0,0,0,.394-.154.549.549,0,0,0,0-.789L4.808,33.192a.549.549,0,0,0-.789,0L2.492,34.719a.558.558,0,0,0,.789.789l.583-.583V42.2L3.3,41.63a.558.558,0,0,0-.789.789l1.526,1.526a.572.572,0,0,0,.394.154.6.6,0,0,0,.394-.154l1.526-1.526a.558.558,0,0,0-.789-.789l-.583.583V34.924Z" transform="translate(0 -25.435)" fill="#fff"/>
    <path id="패스_203" data-name="패스 203" d="M43.6,33.1H33.649a.542.542,0,0,0-.549.549V43.6a.542.542,0,0,0,.549.549H43.6a.542.542,0,0,0,.549-.549V33.649A.542.542,0,0,0,43.6,33.1Z" transform="translate(-25.497 -25.497)" fill="#fff"/>
  </g>
</svg>
