<svg width="26" height="17" viewBox="0 0 26 17" fill="none" xmlns="http://www.w3.org/2000/svg">
<path d="M13.9174 15.5313V13.9165C13.9174 13.4924 13.8338 13.0724 13.6715 12.6806C13.5092 12.2888 13.2713 11.9328 12.9714 11.633C12.6714 11.3332 12.3154 11.0953 11.9236 10.9331C11.5317 10.7709 11.1118 10.6874 10.6877 10.6875H4.22899C3.37261 10.6875 2.5513 11.0277 1.94575 11.6332C1.3402 12.2388 1 13.0601 1 13.9165V15.5313" stroke="white" stroke-width="2" stroke-linecap="round" stroke-linejoin="round"/>
<path d="M7.64977 7.29978C9.3894 7.29978 10.7997 5.88953 10.7997 4.14989C10.7997 2.41025 9.3894 1 7.64977 1C5.91013 1 4.49988 2.41025 4.49988 4.14989C4.49988 5.88953 5.91013 7.29978 7.64977 7.29978Z" stroke="white" stroke-width="2" stroke-linecap="round" stroke-linejoin="round"/>
<path d="M18.7612 15.5318V13.917C18.7607 13.2015 18.5225 12.5065 18.0841 11.9411C17.6458 11.3756 17.032 10.9718 16.3393 10.793" stroke="white" stroke-width="2" stroke-linecap="round" stroke-linejoin="round"/>
<path d="M13.1094 1.10547C13.8041 1.28323 14.4198 1.68716 14.8595 2.25356C15.2993 2.81996 15.5379 3.51661 15.5379 4.23366C15.5379 4.95071 15.2993 5.64736 14.8595 6.21376C14.4198 6.78016 13.8041 7.18409 13.1094 7.36185" stroke="white" stroke-width="2" stroke-linecap="round" stroke-linejoin="round"/>
<path d="M21.9996 1.96484V7.56465" stroke="white" stroke-width="2" stroke-linecap="round" stroke-linejoin="round"/>
<path d="M19.1997 4.76562H24.7995" stroke="white" stroke-width="2" stroke-linecap="round" stroke-linejoin="round"/>
</svg>
